<?xml version="1.0" encoding="UTF-8"?>
<svg version="1.1" xmlns="http://www.w3.org/2000/svg" width="1200" height="1248">
<path d="M0 0 C8.05120083 3.42237162 15.61129778 7.982893 23.125 12.4375 C25.23664167 13.67895966 27.34863294 14.91982482 29.4609375 16.16015625 C30.53956055 16.79453613 31.61818359 17.42891602 32.72949219 18.08251953 C38.05525866 21.20498668 43.40151688 24.29165154 48.75 27.375 C49.8225 27.99358887 50.895 28.61217773 52 29.24951172 C60.62083354 34.21647356 69.26139236 39.14847771 77.9041748 44.0770874 C86.94435523 49.23397645 95.94507624 54.45533409 104.92675781 59.71337891 C112.54905778 64.16916344 120.20531311 68.56397146 127.875 72.9375 C142.34950369 81.19165636 156.78221846 89.51717372 171.20898438 97.85449219 C174.43068269 99.71602669 177.65277618 101.57687529 180.875 103.4375 C181.93525391 104.05012695 182.99550781 104.66275391 184.08789062 105.29394531 C189.81323318 108.59835489 195.54787968 111.88541473 201.296875 115.1484375 C222.79573299 127.35379078 222.79573299 127.35379078 231.5 132.6875 C232.12213379 133.06108643 232.74426758 133.43467285 233.38525391 133.81958008 C238.24780762 136.85676531 241.92853367 140.6116103 244 146 C244.18785734 148.79065644 244.26468661 151.47975387 244.24609566 154.26964188 C244.24840335 155.11506735 244.25071103 155.96049282 244.25308865 156.83153725 C244.25841064 159.68344419 244.24938632 162.53512834 244.24050903 165.38702393 C244.24138065 167.44462727 244.24313082 169.5022304 244.24568737 171.55983233 C244.25017352 177.22880692 244.24213982 182.89770637 244.23213124 188.56667137 C244.22351727 194.67436094 244.22641544 200.78204606 244.22793579 206.88973999 C244.22898595 217.47666826 244.22276535 228.06356944 244.21146011 238.65048981 C244.19963177 249.75571051 244.19192937 260.86092142 244.18975449 271.96614838 C244.18961701 272.65627411 244.18947953 273.34639985 244.18933788 274.05743849 C244.18866123 277.56214501 244.18805846 281.06685155 244.18748413 284.57155809 C244.18328173 309.4044829 244.16980263 334.2373949 244.15087891 359.0703125 C244.13251436 383.19726493 244.11834502 407.32421386 244.10986328 431.45117188 C244.10960023 432.19468561 244.10933718 432.93819935 244.10906615 433.70424381 C244.10642915 441.17081847 244.10387751 448.63739315 244.10138843 456.10396786 C244.09631582 471.31465308 244.09067331 486.52533807 244.08468628 501.73602295 C244.08427441 502.78509944 244.08427441 502.78509944 244.08385422 503.85536939 C244.06544851 550.5702517 244.03371605 597.28512649 244 644 C247.7498042 641.85905272 251.49938468 639.71771425 255.2487793 637.5760498 C256.51792716 636.85117635 257.78713073 636.12640041 259.05639648 635.4017334 C267.71727117 630.45683051 276.36551798 625.49089045 285 620.5 C294.02594157 615.2846707 303.06927393 610.10085259 312.125 604.9375 C320.77695859 600.00403266 329.40477505 595.03180587 338 590 C346.59522672 584.9681931 355.2231213 579.99610928 363.875 575.0625 C372.97080181 569.87557463 382.05690746 564.67281484 391.125 559.4375 C392.17437744 558.83212402 393.22375488 558.22674805 394.30493164 557.60302734 C399.34230129 554.69550039 404.37660723 551.78285546 409.40429688 548.85862732 C411.79641787 547.46782723 414.1899736 546.0795074 416.5836792 544.69143677 C418.27026548 543.71202584 419.95474134 542.72898353 421.63916016 541.74584961 C422.66187012 541.15296143 423.68458008 540.56007324 424.73828125 539.94921875 C425.63587158 539.42674561 426.53346191 538.90427246 427.45825195 538.3659668 C429.92396993 537.0408595 432.39568383 536.01744335 435 535 C434.99723462 533.69924813 434.99446924 532.39849627 434.99162006 531.05832767 C434.92661865 500.16732672 434.87716451 469.27634426 434.84680401 438.38529131 C434.84305198 434.58148641 434.83916901 430.77768164 434.83520508 426.97387695 C434.83441815 426.21662159 434.83363122 425.45936624 434.83282044 424.67916375 C434.8197736 412.42468721 434.79612374 400.17025299 434.76854161 387.91580153 C434.74046731 375.33759268 434.72381946 362.75940596 434.71773452 350.18116707 C434.71362227 342.42239465 434.70064337 334.66374182 434.6762506 326.90500622 C434.65848843 320.9513048 434.6566395 314.99766445 434.66067696 309.04393578 C434.65985212 306.60468434 434.65389127 304.16542835 434.64238358 301.72620392 C434.62742762 298.39234128 434.63105812 295.05898767 434.63923645 291.72511292 C434.63049793 290.76302762 434.6217594 289.80094233 434.61275607 288.80970293 C434.66045392 281.60128296 435.88849529 275.38030127 439.7421875 269.2109375 C442.57780731 266.43418869 445.68494747 264.54154811 449.125 262.625 C449.85871826 262.20492676 450.59243652 261.78485352 451.34838867 261.35205078 C452.99256171 260.41113165 454.63910713 259.47434985 456.28759766 258.54101562 C459.17318847 256.90160525 462.04654089 255.24221116 464.91796875 253.578125 C476.88504331 246.64468725 488.88801244 239.77520381 500.9022522 232.92401123 C508.96098741 228.32697775 516.99336382 223.68723496 525 219 C533.59522672 213.9681931 542.2231213 208.99610928 550.875 204.0625 C559.97079987 198.87557574 569.05712263 193.67318494 578.125 188.4375 C579.19105469 187.82197266 580.25710938 187.20644531 581.35546875 186.57226562 C584.57057523 184.71529806 587.78535378 182.85776421 591 181 C614.27022214 167.55199275 614.27022214 167.55199275 624.015625 161.9921875 C624.60187653 161.6577211 625.18812805 161.3232547 625.79214478 160.97865295 C628.15736626 159.62953562 630.52271491 158.28064305 632.88861084 156.93270874 C639.17214395 153.35202775 645.44299003 149.75171561 651.6796875 146.08984375 C652.74558105 145.46408447 653.81147461 144.8383252 654.90966797 144.19360352 C656.88739229 143.02974916 658.86317192 141.8625799 660.83642578 140.69116211 C682.04484112 128.20277496 682.04484112 128.20277496 690 130 C696.49284208 132.4306537 702.41423945 135.90725806 708.4375 139.3125 C709.53860107 139.93205566 710.63970215 140.55161133 711.77416992 141.18994141 C720.15169721 145.91885319 728.47109357 150.7432681 736.76977539 155.60888672 C744.44185604 160.1041443 752.15014463 164.53377914 759.875 168.9375 C774.34978065 177.19116772 788.78222179 185.51717565 803.20898438 193.85449219 C806.43068275 195.71602672 809.65271079 197.57698839 812.875 199.4375 C813.94105469 200.05302734 815.00710938 200.66855469 816.10546875 201.30273438 C824.68995597 206.25453042 833.29580293 211.16824868 841.90472412 216.07736206 C850.94187135 221.23254275 859.94029105 226.45097368 868.91796875 231.70898438 C876.02829058 235.86687456 883.17194771 239.96398067 890.32955933 244.03964233 C899.71825539 249.38835693 909.10098429 254.74814949 918.4375 260.1875 C919.33678223 260.7038501 920.23606445 261.2202002 921.16259766 261.75219727 C927.92058282 265.71497086 933.04037015 269.49295022 936 277 C936.43679223 280.69067244 936.40907126 284.35684338 936.38768005 288.0697937 C936.39306559 289.18816907 936.39845113 290.30654444 936.40399987 291.45880997 C936.41831296 295.20816607 936.4111672 298.95717079 936.40405273 302.70654297 C936.40975456 305.39393228 936.41661741 308.08129632 936.42485046 310.76867676 C936.44204015 317.31181805 936.44287808 323.85486332 936.43763756 330.39802133 C936.43359465 335.71723251 936.43504085 341.03641533 936.44038582 346.35562515 C936.44113424 347.11295141 936.44188266 347.87027767 936.44265376 348.6505532 C936.44418526 350.18911616 936.44572361 351.7276791 936.44726873 353.26624204 C936.46099458 367.69254282 936.45555567 382.11878936 936.44408352 396.5450889 C936.43415277 409.7375374 936.44708888 422.92984562 936.47101771 436.12227248 C936.49541204 449.67362437 936.50501566 463.22491093 936.49836498 476.77628434 C936.49487328 484.38218714 936.49710149 491.98798207 936.51461601 499.59386826 C936.52934226 506.06917162 936.5299681 512.54429118 936.5125451 519.01959096 C936.50403569 522.3219419 936.504054 525.6238972 936.51719666 528.92624283 C936.5303699 532.50988515 936.51888995 536.09263518 936.50120544 539.67623901 C936.51081045 540.7149634 936.52041546 541.75368778 936.53031152 542.82388866 C936.45818016 549.92861461 935.29726222 555.42089196 930.31201172 560.83227539 C924.69253682 564.67878176 918.85781426 568.10159935 912.918396 571.43191528 C911.07443221 572.46585414 909.23429579 573.50633142 907.39501953 574.54858398 C905.48124596 575.63300039 903.56728384 576.71706309 901.65219116 577.79914856 C895.37103664 581.34873774 889.12072593 584.95097388 882.875 588.5625 C880.72395833 589.8046875 878.57291667 591.046875 876.421875 592.2890625 C874.28120611 593.52596571 872.14058106 594.76294479 870 596 C856.05155632 604.06089304 842.08996112 612.09709426 828.09527588 620.07736206 C820.03736788 624.67394223 812.00582214 629.3132416 804 634 C795.40477328 639.0318069 786.7768787 644.00389072 778.125 648.9375 C765.83052236 655.94848587 753.56428156 663.00720599 741.31005859 670.08837891 C737.79766647 672.11685142 734.28380929 674.14276619 730.76953125 676.16796875 C729.57242346 676.85798299 728.37532054 677.54800568 727.17822266 678.23803711 C724.90597028 679.54780755 722.6334741 680.85715172 720.36083984 682.16625977 C719.33812988 682.75592529 718.31541992 683.34559082 717.26171875 683.953125 C716.36412842 684.47036133 715.46653809 684.98759766 714.54174805 685.52050781 C713.70297119 686.00874023 712.86419434 686.49697266 712 687 C711.13534433 687.32136146 710.27068867 687.64272291 709.37983131 687.97382259 C706.87041193 689.70696889 706.87041193 689.70696889 706.53980803 691.9224683 C706.35697135 694.59253901 706.34581517 697.22204869 706.38095093 699.89833069 C706.37471195 700.92697705 706.36847297 701.95562342 706.36204493 703.01544088 C706.34706409 706.47951094 706.36781545 709.94246464 706.38818359 713.40649414 C706.38464449 715.88329469 706.37886934 718.36009291 706.37101746 720.83688354 C706.35881148 726.18007881 706.36172017 731.52294464 706.37784958 736.86610603 C706.4009128 744.60229597 706.39360998 752.3382291 706.37831838 760.07442754 C706.35402961 772.63972811 706.34984643 785.20494664 706.36035156 797.77026367 C706.36097539 798.5225696 706.36159921 799.27487553 706.36224194 800.04997861 C706.36351319 801.57243536 706.36478742 803.0948921 706.36606465 804.61734885 C706.36669703 805.3720417 706.36732941 806.12673455 706.36798096 806.90429688 C706.3686191 807.65957752 706.36925725 808.41485816 706.36991473 809.1930261 C706.37671054 817.56772984 706.37871154 825.9424324 706.37890625 834.31713867 C706.37892908 835.06640635 706.37895191 835.81567403 706.37897544 836.58764679 C706.37890611 849.0970427 706.36685119 861.60640749 706.34794676 874.1157884 C706.33700146 881.82793022 706.33778383 889.53990859 706.3538865 897.25204235 C706.3656255 903.16946078 706.36257029 909.08681187 706.35425758 915.00423813 C706.35344843 917.42694302 706.35778353 919.84965605 706.36770058 922.27234077 C706.38060567 925.58599196 706.37502369 928.8991336 706.36508179 932.21278381 C706.37333996 933.16601896 706.38159814 934.1192541 706.39010656 935.10137516 C706.33951902 942.24024974 705.51036276 949.56794832 701.1953125 955.46728516 C694.89568116 960.63030848 688.1819102 964.55568327 681 968.375 C679.1755805 969.36354086 677.35366195 970.35658701 675.53184509 971.34991455 C674.33257573 972.00352632 673.13260078 972.65584521 671.93190002 973.30682373 C667.37649715 975.7790898 662.88808392 978.34465225 658.4375 981 C651.55070322 985.0941565 644.62814812 989.12273595 637.6875 993.125 C636.58672119 993.75978271 635.48594238 994.39456543 634.35180664 995.04858398 C625.61392699 1000.08142671 616.8572115 1005.08085184 608.0977478 1010.07598877 C600.03901259 1014.67302225 592.00663618 1019.31276504 584 1024 C574.22497235 1029.72248449 564.40213044 1035.3584344 554.5625 1040.96875 C546.69462595 1045.45555737 538.84174598 1049.96764758 531 1054.5 C521.97469154 1059.71642486 512.93072197 1064.89914975 503.875 1070.0625 C495.22304141 1074.99596734 486.59522495 1079.96819413 478 1085 C469.40477328 1090.0318069 460.7768787 1095.00389072 452.125 1099.9375 C443.02920013 1105.12442426 433.94287737 1110.32681506 424.875 1115.5625 C423.80894531 1116.17802734 422.74289062 1116.79355469 421.64453125 1117.42773438 C418.42942477 1119.28470194 415.21464622 1121.14223579 412 1123 C398.05155632 1131.06089304 384.08996112 1139.09709426 370.09527588 1147.07736206 C362.03736788 1151.67394223 354.00582214 1156.3132416 346 1161 C337.40477328 1166.0318069 328.7768787 1171.00389072 320.125 1175.9375 C306.72370004 1183.5796567 293.35746976 1191.28145606 280 1199 C272.37361042 1203.40566089 264.74585116 1207.80892464 257.11425781 1212.20556641 C255.03248592 1213.4050822 252.95110759 1214.60528128 250.87011719 1215.80615234 C247.93584631 1217.49856949 244.99949762 1219.18732035 242.0625 1220.875 C241.1861792 1221.38119873 240.3098584 1221.88739746 239.40698242 1222.40893555 C238.60365479 1222.86953369 237.80032715 1223.33013184 236.97265625 1223.8046875 C236.27406494 1224.20671387 235.57547363 1224.60874023 234.85571289 1225.02294922 C229.727003 1227.72326457 224.64110362 1227.79003171 219 1227 C214.02746602 1225.22131291 209.55530684 1222.63596413 205 1220 C204.15808105 1219.51692383 203.31616211 1219.03384766 202.44873047 1218.53613281 C197.43870076 1215.65379539 192.44863666 1212.73876425 187.46875 1209.8046875 C181.08297881 1206.04233319 174.67137822 1202.32619074 168.25 1198.625 C167.17733887 1198.00633057 166.10467773 1197.38766113 164.99951172 1196.75024414 C156.37887778 1191.78329982 147.73844971 1186.85143223 139.0958252 1181.9229126 C130.05564477 1176.76602355 121.05492376 1171.54466591 112.07324219 1166.28662109 C104.45094222 1161.83083656 96.79468689 1157.43602854 89.125 1153.0625 C74.65049631 1144.80834364 60.21778154 1136.48282628 45.79101562 1128.14550781 C42.56931725 1126.28397328 39.34728921 1124.42301161 36.125 1122.5625 C34.52591797 1121.63920898 34.52591797 1121.63920898 32.89453125 1120.69726562 C24.31004403 1115.74546958 15.70419707 1110.83175132 7.09527588 1105.92263794 C-1.94471708 1100.76583392 -10.94525321 1095.54456231 -19.92675781 1090.28662109 C-27.54905778 1085.83083656 -35.20531311 1081.43602854 -42.875 1077.0625 C-57.34950369 1068.80834364 -71.78221846 1060.48282628 -86.20898438 1052.14550781 C-89.43068275 1050.28397328 -92.65271079 1048.42301161 -95.875 1046.5625 C-97.47408203 1045.63920898 -97.47408203 1045.63920898 -99.10546875 1044.69726562 C-107.68995597 1039.74546958 -116.29580293 1034.83175132 -124.90472412 1029.92263794 C-133.94471708 1024.76583392 -142.94525321 1019.54456231 -151.92675781 1014.28662109 C-159.54905778 1009.83083656 -167.20531311 1005.43602854 -174.875 1001.0625 C-186.10435768 994.65890398 -197.31247067 988.2197409 -208.50390625 981.75 C-212.43203056 979.47969861 -216.36385098 977.21611511 -220.30114746 974.96177673 C-222.07680815 973.94496469 -223.85173609 972.92688487 -225.62646484 971.90844727 C-227.84542482 970.63562761 -230.06571075 969.36511548 -232.28759766 968.09741211 C-253.32936293 956.01191122 -253.32936293 956.01191122 -256 948 C-256.09321676 946.16582792 -256.12670326 944.3284001 -256.1276505 942.49186105 C-256.13066647 941.33705592 -256.13368244 940.1822508 -256.1367898 938.99245158 C-256.13502033 937.71536266 -256.13325086 936.43827374 -256.13142776 935.12248516 C-256.13307669 933.75305059 -256.13516264 932.3836165 -256.13764787 931.01418319 C-256.14323342 927.22583738 -256.14253866 923.43751409 -256.14087028 919.64916547 C-256.14014136 915.53723425 -256.14515697 911.4253095 -256.1494453 907.31338102 C-256.15703929 899.14660806 -256.15921906 890.97984163 -256.15977435 882.81306551 C-256.1606866 873.03570913 -256.16734999 863.25835883 -256.17412117 853.48100506 C-256.19019725 829.84751414 -256.19608609 806.21402385 -256.20086992 782.58052844 C-256.20320406 771.4060947 -256.20680649 760.23166148 -256.2105653 749.05722815 C-256.22340165 710.82516385 -256.23412123 672.59309984 -256.2375679 634.36103344 C-256.23778954 631.96011476 -256.23801132 629.55919609 -256.23823325 627.15827741 C-256.2384539 624.75147819 -256.23867438 622.34467896 -256.2388947 619.93787974 C-256.23933726 615.10922126 -256.23978437 610.28056278 -256.24023438 605.4519043 C-256.24034377 604.25467367 -256.24045316 603.05744304 -256.24056586 601.8239327 C-256.244198 562.98746076 -256.26012351 524.15100747 -256.28342474 485.31454267 C-256.30800067 444.27867742 -256.32173968 403.24282284 -256.32293582 362.20695001 C-256.32310728 357.70543913 -256.32332271 353.20392825 -256.32357025 348.70241737 C-256.32362602 347.59397473 -256.32368179 346.48553208 -256.32373925 345.34350026 C-256.32489159 327.47809798 -256.33592905 309.61271478 -256.35045731 291.74731894 C-256.36479786 273.8029712 -256.36807313 255.85864801 -256.36001733 237.91429611 C-256.35554965 227.24427936 -256.359467 216.57434169 -256.37525584 205.90433528 C-256.3849691 198.78445108 -256.38386273 191.66462258 -256.37381961 184.54473895 C-256.36840108 180.48311518 -256.36780202 176.4216438 -256.38032833 172.36003234 C-256.39162162 168.667564 -256.38919362 164.97537283 -256.37566125 161.28291434 C-256.37206355 159.32405404 -256.38323843 157.36518376 -256.39495254 155.40635517 C-256.35434284 148.66148831 -256.13756105 143.6845003 -251.59106445 138.34545898 C-246.2143561 133.8533636 -240.28268553 130.48621541 -234.1875 127.0625 C-232.44201561 126.06917591 -230.6965378 125.07584 -228.95147705 124.08177185 C-227.15136077 123.05749532 -225.34947581 122.03638445 -223.54736328 121.015625 C-218.05324366 117.89931711 -212.59154278 114.7268332 -207.125 111.5625 C-197.46637172 105.98416878 -187.78439584 100.44771912 -178.09527588 94.92263794 C-170.03736788 90.32605777 -162.00582214 85.6867584 -154 81 C-145.40477328 75.9681931 -136.7768787 70.99610928 -128.125 66.0625 C-119.02920013 60.87557574 -109.94287737 55.67318494 -100.875 50.4375 C-99.80894531 49.82197266 -98.74289063 49.20644531 -97.64453125 48.57226562 C-94.42942477 46.71529806 -91.21464622 44.85776421 -88 43 C-65.65248585 30.08523147 -65.65248585 30.08523147 -54.87890625 23.921875 C-54.28451248 23.58167831 -53.69011871 23.24148163 -53.07771301 22.89097595 C-50.10287268 21.18946459 -47.12542638 19.49280025 -44.14282227 17.80493164 C-38.71474291 14.72651847 -33.32733782 11.61270807 -28.0234375 8.32421875 C-10.43604491 -2.47924526 -10.43604491 -2.47924526 0 0 Z M-11.4609375 44.5 C-12.85868408 45.32359009 -12.85868408 45.32359009 -14.28466797 46.16381836 C-15.81438232 47.07272827 -15.81438232 47.07272827 -17.375 48 C-19.57224472 49.29411031 -21.77018943 50.5870327 -23.96875 51.87890625 C-24.54213104 52.21620255 -25.11551208 52.55349884 -25.70626831 52.90101624 C-32.06384244 56.63573937 -38.46803248 60.28833839 -44.875 63.9375 C-47.24505356 65.28860358 -49.61479735 66.64024945 -51.984375 67.9921875 C-52.86225677 68.49302605 -52.86225677 68.49302605 -53.75787354 69.00398254 C-59.89089466 72.50502598 -66.00926975 76.03134983 -72.125 79.5625 C-73.19105469 80.17802734 -74.25710937 80.79355469 -75.35546875 81.42773438 C-78.57057523 83.28470194 -81.78535378 85.14223579 -85 87 C-98.94844368 95.06089304 -112.91003888 103.09709426 -126.90472412 111.07736206 C-135.92932258 116.22538439 -144.91527438 121.43652394 -153.88061523 126.68701172 C-163.15766029 132.11161277 -172.48756489 137.44210652 -181.82617188 142.75976562 C-182.94958984 143.39978516 -184.07300781 144.03980469 -185.23046875 144.69921875 C-186.22457764 145.26471436 -187.21868652 145.83020996 -188.24291992 146.4128418 C-189.15275635 146.936604 -190.06259277 147.46036621 -191 148 C-191.94399658 148.52182861 -192.88799316 149.04365723 -193.8605957 149.58129883 C-194.56659912 150.04947021 -195.27260254 150.5176416 -196 151 C-196 151.66 -196 152.32 -196 153 C-195.02281006 153.56376343 -195.02281006 153.56376343 -194.02587891 154.13891602 C-192.04345161 155.28262407 -190.06103034 156.42634256 -188.07861328 157.57006836 C-185.74109133 158.91861329 -183.40353227 160.26709368 -181.06591797 161.61547852 C-175.19915714 164.99967101 -169.33297885 168.38485838 -163.46875 171.7734375 C-151.69603959 178.5741604 -139.90577681 185.34259392 -128.09527588 192.07736206 C-119.05528292 197.23416608 -110.05474679 202.45543769 -101.07324219 207.71337891 C-93.45094222 212.16916344 -85.79468689 216.56397146 -78.125 220.9375 C-65.83052236 227.94848587 -53.56428156 235.00720599 -41.31005859 242.08837891 C-37.79766647 244.11685142 -34.28380929 246.14276619 -30.76953125 248.16796875 C-29.57242346 248.85798299 -28.37532054 249.54800568 -27.17822266 250.23803711 C-24.90597028 251.54780755 -22.6334741 252.85715172 -20.36083984 254.16625977 C-18.8267749 255.05075806 -18.8267749 255.05075806 -17.26171875 255.953125 C-16.36412842 256.47036133 -15.46653809 256.98759766 -14.54174805 257.52050781 C-12 259 -12 259 -9.48364258 260.81542969 C-7.06400571 262.29296977 -7.06400571 262.29296977 -4.54370117 261.38549805 C-3.28456909 260.69967651 -3.28456909 260.69967651 -2 260 C-1.10063721 259.51893799 -0.20127441 259.03787598 0.7253418 258.54223633 C1.70672119 257.97786865 2.68810059 257.41350098 3.69921875 256.83203125 C4.81248535 256.19386475 5.92575195 255.55569824 7.07275391 254.89819336 C8.27771682 254.20304466 9.4826309 253.5078113 10.6875 252.8125 C11.94434799 252.09031382 13.20134912 251.3683941 14.45849609 250.64672852 C17.68637148 248.79256933 20.91189349 246.93436047 24.13653564 245.07458496 C26.99525204 243.42607817 29.85518454 241.77968312 32.71484375 240.1328125 C38.07278109 237.04520824 43.42792501 233.95279067 48.78222656 230.85888672 C55.27125096 227.11021966 61.7633695 223.36691333 68.25488281 219.62255859 C73.64748314 216.51181661 79.03937822 213.39986673 84.4296875 210.28515625 C96.23629484 203.46497363 108.06027 196.6767674 119.90472412 189.92263794 C128.92561403 184.77673113 137.9077589 179.56754258 146.86962891 174.31958008 C159.19045041 167.11573232 171.59728072 160.06158393 184 153 C184 152.34 184 151.68 184 151 C183.42894531 150.67950684 182.85789062 150.35901367 182.26953125 150.02880859 C171.23565752 143.82992921 160.23291069 137.58447383 149.3125 131.1875 C140.61354722 126.09231761 131.88277078 121.05575311 123.125 116.0625 C108.65035384 107.80859497 94.21777984 99.48282529 79.79101562 91.14550781 C76.56931725 89.28397328 73.34728921 87.42301161 70.125 85.5625 C68.52591797 84.63920898 68.52591797 84.63920898 66.89453125 83.69726562 C59.49137342 79.42689667 52.07342859 75.18309512 44.64929199 70.94937134 C35.03381243 65.46570337 25.43651571 59.95242604 15.875 54.375 C14.92222168 53.8193335 13.96944336 53.26366699 12.98779297 52.69116211 C7.61888055 49.552215 2.28887713 46.36153989 -2.99951172 43.08837891 C-6.59279082 41.1334316 -8.14975742 42.53510955 -11.4609375 44.5 Z M679.17578125 175.4375 C677.77730957 176.2735376 677.77730957 176.2735376 676.35058594 177.12646484 C675.34801758 177.74473145 674.34544922 178.36299805 673.3125 179 C671.13726799 180.30560301 668.96146758 181.6102594 666.78515625 182.9140625 C665.66254395 183.59243164 664.53993164 184.27080078 663.38330078 184.96972656 C658.0448461 188.17326164 652.64838435 191.27388823 647.25 194.375 C646.17806396 194.9930249 645.10612793 195.6110498 644.00170898 196.24780273 C635.38102287 201.21657716 626.73928095 206.14809375 618.0958252 211.0770874 C610.03773079 215.67375438 602.00599909 220.313138 594 225 C585.40477328 230.0318069 576.7768787 235.00389072 568.125 239.9375 C555.82768623 246.95010318 543.5584455 254.0101851 531.30126953 261.09277344 C525.47297454 264.45992626 519.6426826 267.82361698 513.8125 271.1875 C512.73145996 271.81148682 511.65041992 272.43547363 510.53662109 273.07836914 C505.36397856 276.06327996 500.18839214 279.04254309 495 282 C498.40833646 284.8455204 501.83466984 287.18211602 505.69921875 289.36328125 C507.36887695 290.31074219 507.36887695 290.31074219 509.07226562 291.27734375 C509.66048096 291.60847168 510.24869629 291.93959961 510.85473633 292.28076172 C513.36856059 293.6958971 515.87694735 295.12055205 518.38577271 296.54452515 C519.68340052 297.28088741 520.98131564 298.0167436 522.2795105 298.75210571 C528.54003282 302.2995811 534.77185147 305.89602547 541 309.5 C549.43325271 314.37486125 557.88179504 319.22207612 566.34375 324.046875 C576.57185335 329.87868831 586.76590016 335.7650223 596.92675781 341.71337891 C604.54905935 346.16916436 612.20538392 350.56384552 619.875 354.9375 C629.0108491 360.14798994 638.13859066 365.3718154 647.25 370.625 C648.83180054 371.53366821 648.83180054 371.53366821 650.44555664 372.46069336 C655.92557593 375.61590705 661.37300879 378.81549961 666.78515625 382.0859375 C667.88118164 382.74255371 668.97720703 383.39916992 670.10644531 384.07568359 C672.19522095 385.32939434 674.27703009 386.59480906 676.35058594 387.87353516 C677.28290039 388.43089355 678.21521484 388.98825195 679.17578125 389.5625 C679.98958252 390.05878906 680.80338379 390.55507813 681.6418457 391.06640625 C684.62670992 392.24811458 685.9678081 391.99086082 689 391 C690.81952641 390.12981406 692.60485887 389.18617912 694.359375 388.19140625 C695.89549438 387.3262439 695.89549438 387.3262439 697.46264648 386.44360352 C698.54747314 385.82283936 699.6322998 385.2020752 700.75 384.5625 C701.87672119 383.9243335 703.00344238 383.28616699 704.16430664 382.62866211 C711.6445582 378.38011006 719.07696342 374.05503076 726.4765625 369.66796875 C741.84549172 360.57299814 757.38924296 351.77039818 772.9022522 342.92401123 C780.96098741 338.32697775 788.99336382 333.68723496 797 329 C806.76483402 323.28348306 816.57731794 317.65320587 826.40673828 312.04882812 C835.66783705 306.76758925 844.90616744 301.4480236 854.13769531 296.11523438 C861.74572444 291.72096217 869.36403527 287.34555811 877 283 C874.07024778 280.7124904 871.05999635 278.80021208 867.8359375 276.953125 C866.81000488 276.36345947 865.78407227 275.77379395 864.72705078 275.16625977 C863.62087402 274.53389404 862.51469727 273.90152832 861.375 273.25 C860.20671245 272.57961756 859.03858371 271.90895829 857.87060547 271.23803711 C855.44622914 269.84564626 853.02117431 268.45444754 850.59570312 267.06396484 C846.15894948 264.51900605 841.73099269 261.95887449 837.30273438 259.39916992 C826.58661647 253.20545795 815.84723259 247.05378648 805.09527588 240.92263794 C796.05528292 235.76583392 787.05474679 230.54456231 778.07324219 225.28662109 C770.45094222 220.83083656 762.79468689 216.43602854 755.125 212.0625 C746.0291956 206.87557316 736.94339116 201.67230071 727.875 196.4375 C726.82562256 195.83284912 725.77624512 195.22819824 724.69506836 194.60522461 C719.6523303 191.69730625 714.61596678 188.77936496 709.59570312 185.83283997 C707.20469685 184.43042129 704.81065412 183.03323412 702.4163208 181.63650513 C700.72815011 180.64878372 699.04443383 179.65346146 697.36083984 178.65795898 C696.33812988 178.06184814 695.31541992 177.4657373 694.26171875 176.8515625 C693.36412842 176.32385254 692.46653809 175.79614258 691.54174805 175.25244141 C686.54834882 172.79195365 683.97508165 172.51069172 679.17578125 175.4375 Z M197.1875 190 C189.31905317 194.66875472 181.38785376 199.22243971 173.4375 203.75 C164.59718111 208.78662788 155.7798406 213.85833304 147 219 C138.40485795 224.03195018 129.77687727 229.00389153 121.125 233.9375 C112.02920013 239.12442426 102.94287737 244.32681506 93.875 249.5625 C92.80894531 250.17802734 91.74289062 250.79355469 90.64453125 251.42773438 C87.42942477 253.28470194 84.21464622 255.14223579 81 257 C76.70877226 259.47992741 72.41714147 261.95915434 68.125 264.4375 C67.06692139 265.04867676 66.00884277 265.65985352 64.91870117 266.28955078 C59.15427853 269.6156979 53.38166098 272.92681584 47.59765625 276.21875 C46.66726532 276.74868309 46.66726532 276.74868309 45.71807861 277.2893219 C42.73895558 278.98603856 39.75864185 280.68053189 36.77587891 282.37084961 C34.65811532 283.57595719 32.55152754 284.80104037 30.4597289 286.05067444 C27 288 27 288 23.5783518 289.4407959 C17.2486723 292.33463445 17.2486723 292.33463445 13.2579162 297.83264351 C12.01396683 303.55251761 12.3140158 309.40552212 12.43669128 315.22265625 C12.43102068 317.21361321 12.41963505 319.2045607 12.40303212 321.1954565 C12.37396466 326.66278307 12.42594618 332.12679852 12.49114692 337.59370303 C12.54727979 343.4900031 12.52828981 349.38611595 12.51841736 355.28260803 C12.51160009 365.49721542 12.55239148 375.71074347 12.62550926 385.92507935 C12.70213405 396.63630434 12.75247244 407.34706733 12.76659584 418.05856323 C12.76748946 418.72484612 12.76838307 419.391129 12.76930377 420.07760227 C12.77370217 423.46139182 12.77762013 426.84518174 12.78135315 430.22897208 C12.80865021 454.18923653 12.89621162 478.14893886 13.01928711 502.10888672 C13.1387063 525.38392144 13.23078231 548.65880228 13.28588867 571.93408203 C13.28759851 572.65167072 13.28930835 573.3692594 13.29107001 574.1085932 C13.30821094 581.31499046 13.32479649 588.52138892 13.34097518 595.72778841 C13.37394492 610.40772653 13.41062119 625.08765462 13.44953918 639.76757812 C13.45132395 640.44251998 13.45310872 641.11746183 13.45494758 641.81285647 C13.57453288 686.87547433 13.78078839 731.93776871 14 777 C15.76749051 776.03642745 17.53491953 775.07274211 19.30232239 774.10900879 C20.28656598 773.57236855 21.27080957 773.0357283 22.28487873 772.48282623 C37.6419444 764.0957755 52.82186441 755.40485933 67.91796875 746.55859375 C83.84428554 737.22727027 99.86969965 728.06668894 115.9041748 718.9229126 C124.94293243 713.76683517 133.94259442 708.54689688 142.92236328 703.28881836 C150.58602822 698.80810273 158.28713973 694.39518883 166 690 C175.25196555 684.72626598 184.48483876 679.42192553 193.6875 674.0625 C195.22954102 673.1662793 195.22954102 673.1662793 196.80273438 672.25195312 C197.73794922 671.70603516 198.67316406 671.16011719 199.63671875 670.59765625 C200.45873779 670.11820557 201.28075684 669.63875488 202.12768555 669.14477539 C203.94246178 668.13567825 203.94246178 668.13567825 205 667 C205.09886089 664.44615468 205.13177314 661.91934723 205.12304783 659.36499691 C205.1247786 658.14510453 205.1247786 658.14510453 205.12654433 656.90056786 C205.12921846 654.14006713 205.12468233 651.37962322 205.12025452 648.61912537 C205.12069006 646.6342332 205.12156464 644.64934108 205.12284368 642.66444927 C205.12509204 637.18254435 205.12106273 631.70065877 205.11606562 626.21875632 C205.11176616 620.31755994 205.11320718 614.41636474 205.1139679 608.51516724 C205.11452775 597.61389523 205.11062828 586.71263032 205.10462701 575.8113601 C205.09913117 565.74276568 205.09589773 555.67417335 205.09487724 545.60557747 C205.0948085 544.93881341 205.09473976 544.27204935 205.09466894 543.58508031 C205.09433062 540.19912767 205.09402923 536.81317503 205.09374207 533.42722238 C205.09163986 509.42454301 205.08489752 485.42186695 205.07543945 461.41918945 C205.06625982 438.09627297 205.05917386 414.77335738 205.05493164 391.45043945 C205.05473435 390.3726754 205.05473435 390.3726754 205.05453308 389.27313834 C205.05321459 382.0577826 205.05193877 374.84242686 205.05069422 367.62707111 C205.04815779 352.92765531 205.04533653 338.22823957 205.04234314 323.52882385 C205.04220585 322.85292097 205.04206856 322.17701809 205.04192711 321.4806333 C205.03272147 276.32042081 205.01685495 231.16021022 205 186 C202.45599354 186 199.3844225 188.68638149 197.1875 190 Z M-217 187 C-217 432.52 -217 678.04 -217 931 C-207.76 936.28 -198.52 941.56 -189 947 C-176 954.5 -176 954.5 -169.5703125 958.21484375 C-163.27709415 961.84569215 -156.96785934 965.44815038 -150.65625 969.046875 C-140.42814665 974.87868831 -130.23409984 980.7650223 -120.07324219 986.71337891 C-112.45094222 991.16916344 -104.79468689 995.56397146 -97.125 999.9375 C-82.65049631 1008.19165636 -68.21778154 1016.51717372 -53.79101562 1024.85449219 C-50.56931725 1026.71602672 -47.34728921 1028.57698839 -44.125 1030.4375 C-43.05894531 1031.05302734 -41.99289063 1031.66855469 -40.89453125 1032.30273438 C-32.31004403 1037.25453042 -23.70419707 1042.16824868 -15.09527588 1047.07736206 C-6.05528292 1052.23416608 2.94525321 1057.45543769 11.92675781 1062.71337891 C19.54905778 1067.16916344 27.20531311 1071.56397146 34.875 1075.9375 C49.34950369 1084.19165636 63.78221846 1092.51717372 78.20898438 1100.85449219 C81.43068275 1102.71602672 84.65271079 1104.57698839 87.875 1106.4375 C88.94105469 1107.05302734 90.00710938 1107.66855469 91.10546875 1108.30273438 C99.68995597 1113.25453042 108.29580293 1118.16824868 116.90472412 1123.07736206 C125.94187135 1128.23254275 134.94029105 1133.45097368 143.91796875 1138.70898438 C152.21034532 1143.55810259 160.54963275 1148.32285175 168.89959717 1153.07177734 C178.14380968 1158.33094622 187.32179563 1163.69357652 196.42626953 1169.19165039 C197.68866455 1169.9475647 197.68866455 1169.9475647 198.9765625 1170.71875 C199.70955566 1171.16154297 200.44254883 1171.60433594 201.19775391 1172.06054688 C202.9568515 1173.15407918 202.9568515 1173.15407918 205 1173 C205 1100.4 205 1027.8 205 953 C197.74 949.04 190.48 945.08 183 941 C171.85817308 934.65253497 171.85817308 934.65253497 167.48046875 932.1328125 C161.51207336 928.71019363 155.5071787 925.3539431 149.5 922 C140.9055745 917.19922044 132.33802152 912.35526742 123.79711914 907.45996094 C117.52405562 903.86586385 111.23462509 900.30175196 104.9375 896.75 C96.91167466 892.22264643 88.90473052 887.66320319 80.90847778 883.0838623 C70.44916162 877.09401967 59.95963138 871.16225809 49.43408203 865.28930664 C41.00365529 860.57857759 32.61516354 855.79650671 24.23937988 850.98956299 C17.83337896 847.3131007 11.41650878 843.6607579 4.953125 840.0859375 C3.82519531 839.46074219 2.69726562 838.83554687 1.53515625 838.19140625 C-0.58435214 837.01950209 -2.70656333 835.85246667 -4.83203125 834.69140625 C-22.21988263 825.07309277 -22.21988263 825.07309277 -24.55996909 817.08959549 C-25.2996436 813.57706834 -25.10605566 810.01484491 -25.07162571 806.44149971 C-25.06510356 805.12646926 -25.06510356 805.12646926 -25.05844966 803.78487253 C-25.0426227 800.82651436 -25.01956526 797.86825431 -24.99671936 794.90994263 C-24.9841079 792.77569958 -24.97200504 790.64145348 -24.96036905 788.50720489 C-24.93417938 783.85603351 -24.90499541 779.20489382 -24.87358284 774.55375481 C-24.79592681 762.99337622 -24.7348983 751.43290202 -24.67241882 739.87243327 C-24.65752283 737.12059402 -24.64237152 734.36875634 -24.62700666 731.61691967 C-24.5064549 710.00459407 -24.42120224 688.39233606 -24.36314392 666.77975464 C-24.36116583 666.05033148 -24.35918774 665.32090833 -24.35714971 664.56938144 C-24.31838731 650.26320602 -24.28272142 635.95702357 -24.25070202 621.65083146 C-24.22985909 612.34273853 -24.2077715 603.03464925 -24.18432617 593.7265625 C-24.18239991 592.95370131 -24.18047365 592.18084013 -24.17848902 591.38455891 C-24.11552007 566.33615742 -23.97713716 541.28884563 -23.80068113 516.24100896 C-23.61965954 490.48541522 -23.51773315 464.73066332 -23.51386835 438.97440572 C-23.51327907 435.33459961 -23.51177375 431.69479442 -23.50970268 428.05498886 C-23.50932118 427.33866369 -23.50893968 426.62233851 -23.50854662 425.88430651 C-23.50006781 414.36757607 -23.40830485 402.85295253 -23.28494973 391.33694228 C-23.16261438 379.75348254 -23.12976281 368.17290791 -23.18164993 356.58884485 C-23.20712686 350.31439615 -23.19372746 344.04640243 -23.07515144 337.77288246 C-21.19112959 314.13707433 -21.19112959 314.13707433 -28.37576365 292.65126944 C-33.96361519 287.58926228 -40.03906785 284.91908413 -47.22488391 282.85090327 C-50.93713539 281.7126565 -53.78942822 280.00534467 -57.046875 277.9140625 C-58.94749673 276.81698051 -60.84852904 275.72060946 -62.75 274.625 C-64.33723877 273.70956421 -64.33723877 273.70956421 -65.95654297 272.77563477 C-74.59175727 267.80010652 -83.24685355 262.85981315 -91.9041748 257.9229126 C-100.94435523 252.76602355 -109.94507624 247.54466591 -118.92675781 242.28662109 C-127.13915175 237.48588404 -135.39261375 232.75859742 -143.65625 228.046875 C-152.11820725 223.22207481 -160.56646765 218.37437975 -169 213.5 C-179.62227578 207.36069996 -190.268544 201.26435946 -200.92773438 195.18945312 C-202.04083984 194.55458984 -203.15394531 193.91972656 -204.30078125 193.265625 C-205.28216064 192.70649414 -206.26354004 192.14736328 -207.2746582 191.57128906 C-209.11246037 190.51170877 -210.93142159 189.41885021 -212.73120117 188.29589844 C-214.85397592 186.83467402 -214.85397592 186.83467402 -217 187 Z M475 317 C475 388.94 475 460.88 475 535 C487.375 541.93 487.375 541.93 500 549 C508.3125 553.875 508.3125 553.875 512.328125 556.2578125 C518.36740026 559.82255004 524.46916712 563.27885453 530.5625 566.75 C539.40263504 571.78695671 548.22015377 576.85832974 557 582 C565.59514205 587.03195018 574.22312273 592.00389153 582.875 596.9375 C591.97080008 602.12442438 601.0571013 607.32685168 610.125 612.5625 C611.18235352 613.17295166 612.23970703 613.78340332 613.32910156 614.41235352 C617.68751757 616.92950823 622.04520358 619.44792268 626.40234375 621.96728516 C642.45221442 631.25510491 642.45221442 631.25510491 658.5625 640.4375 C659.21750488 640.8092334 659.87250977 641.1809668 660.54736328 641.56396484 C663.1223705 643.26863199 663.1223705 643.26863199 666 644 C666.21015256 615.81050706 666.36890604 587.62113134 666.46630955 559.43101311 C666.51273599 546.34208888 666.57604168 533.25365109 666.67895508 520.16503906 C666.76860192 508.7582502 666.82671021 497.35181358 666.84679645 485.94468224 C666.85853988 479.90330987 666.88617604 473.86294525 666.95157051 467.8218956 C667.01261369 462.13680781 667.03151379 456.45314371 667.01796913 450.76775932 C667.02044726 448.68032661 667.03837959 446.59284682 667.07284927 444.50569725 C667.74741356 433.8998738 667.74741356 433.8998738 664.03089809 424.46458054 C661.70654047 422.8806668 659.65066201 421.90591862 657 421 C656.03118896 420.42443359 655.06237793 419.84886719 654.06420898 419.25585938 C653.21673096 418.78986328 652.36925293 418.32386719 651.49609375 417.84375 C650.52099854 417.30371338 649.54590332 416.76367676 648.54125977 416.20727539 C647.51701904 415.64387451 646.49277832 415.08047363 645.4375 414.5 C636.92563837 409.77593881 628.46129245 404.98489478 620.0625 400.0625 C619.07983154 399.48677246 618.09716309 398.91104492 617.0847168 398.31787109 C615.07682088 397.14144228 613.06892701 395.96500997 611.06103516 394.78857422 C596.13137097 386.06511595 581.11641086 377.48851107 566.0958252 368.9229126 C557.05564477 363.76602355 548.05492376 358.54466591 539.07324219 353.28662109 C530.29061869 348.1525437 521.46080639 343.10253533 512.62182617 338.06640625 C506.56379302 334.61369807 500.51407131 331.14760405 494.48046875 327.65234375 C493.57035034 327.12544701 493.57035034 327.12544701 492.6418457 326.58790588 C489.72916456 324.90130247 486.8179482 323.21228592 483.90869141 321.51977539 C482.88308105 320.92543701 481.8574707 320.33109863 480.80078125 319.71875 C479.89497314 319.19216797 478.98916504 318.66558594 478.0559082 318.12304688 C476.24417431 316.92010127 476.24417431 316.92010127 475 317 Z M891.27734375 319.5703125 C890.27662842 320.12960449 889.27591309 320.68889648 888.24487305 321.26513672 C886.60772339 322.18576904 886.60772339 322.18576904 884.9375 323.125 C883.80932861 323.75809082 882.68115723 324.39118164 881.51879883 325.04345703 C873.03905652 329.81207292 864.62392981 334.68732219 856.23168945 339.6081543 C848.55899924 344.10344809 840.85032919 348.53350902 833.125 352.9375 C824.02902647 358.12411698 814.94287486 363.32681651 805.875 368.5625 C804.80894531 369.17802734 803.74289062 369.79355469 802.64453125 370.42773438 C799.42942477 372.28470194 796.21464622 374.14223579 793 376 C779.05794277 384.05720227 765.10326189 392.09066748 751.1144104 400.06628418 C741.67455155 405.45015281 732.27248377 410.89652377 722.89990234 416.39672852 C721.99062988 416.92967529 721.08135742 417.46262207 720.14453125 418.01171875 C719.36440674 418.47022217 718.58428223 418.92872559 717.78051758 419.40112305 C713.87867647 421.64479303 709.93452539 423.81415256 706 426 C706 497.94 706 569.88 706 644 C713.90890612 640.04554694 721.5457516 636.055967 729.125 631.5625 C731.23664167 630.32104034 733.34863294 629.08017518 735.4609375 627.83984375 C736.53956055 627.20546387 737.61818359 626.57108398 738.72949219 625.91748047 C744.05525866 622.79501332 749.40151688 619.70834846 754.75 616.625 C756.35875 615.6971167 756.35875 615.6971167 758 614.75048828 C766.62083354 609.78352644 775.26139236 604.85152229 783.9041748 599.9229126 C791.96226921 595.32624562 799.99400091 590.686862 808 586 C816.59523022 580.96819105 825.22328125 575.99639342 833.875 571.0625 C851.49332884 561.01275324 869.08980507 550.92657986 886.5625 540.625 C887.50335449 540.07110596 888.44420898 539.51721191 889.41357422 538.9465332 C890.26838379 538.44081787 891.12319336 537.93510254 892.00390625 537.4140625 C892.75486572 536.9701416 893.5058252 536.5262207 894.27954102 536.06884766 C895.96151057 535.11431796 895.96151057 535.11431796 897 534 C897.09789948 531.20576409 897.12992909 528.43624787 897.12025452 525.6415863 C897.12110894 524.75460102 897.12196337 523.86761573 897.12284368 522.9537521 C897.12450121 519.95799894 897.11897267 516.9623008 897.11352539 513.96655273 C897.11324355 511.8285014 897.11340119 509.69044996 897.1139679 507.55239868 C897.114256 501.72825507 897.10835722 495.90413186 897.10139394 490.07999301 C897.09516251 484.00076318 897.09455677 477.92153294 897.09336853 471.84230042 C897.09025459 460.32151502 897.08204036 448.80073906 897.07201904 437.27995783 C897.06085985 424.16773071 897.05534794 411.05550315 897.05032361 397.94327247 C897.03985779 370.96217641 897.02225714 343.98108873 897 317 C894.97210197 317 892.98262699 318.61656499 891.27734375 319.5703125 Z M448.59375 571.97265625 C446.90934814 572.93957397 446.90934814 572.93957397 445.19091797 573.92602539 C443.96055897 574.638092 442.73025442 575.35025272 441.5 576.0625 C440.22954271 576.793909 438.95886921 577.52494258 437.68798828 578.25561523 C434.41806815 580.13695711 431.15108313 582.02333366 427.8848877 583.91113281 C425.01596273 585.5684614 422.14463009 587.22160385 419.2734375 588.875 C413.91922407 591.95968687 408.56802009 595.04955239 403.21777344 598.14111328 C396.72874904 601.88978034 390.2366305 605.63308667 383.74511719 609.37744141 C378.35251686 612.48818339 372.96062178 615.60013327 367.5703125 618.71484375 C355.76370516 625.53502637 343.93973 632.3232326 332.09527588 639.07736206 C324.03736788 643.67394223 316.00582214 648.3132416 308 653 C299.40477328 658.0318069 290.7768787 663.00389072 282.125 667.9375 C273.02920013 673.12442426 263.94287737 678.32681506 254.875 683.5625 C253.80894531 684.17802734 252.74289062 684.79355469 251.64453125 685.42773438 C248.42942477 687.28470194 245.21464622 689.14223579 242 691 C228.05155632 699.06089304 214.08996112 707.09709426 200.09527588 715.07736206 C192.03736788 719.67394223 184.00582214 724.3132416 176 729 C167.40477328 734.0318069 158.7768787 739.00389072 150.125 743.9375 C141.02920013 749.12442426 131.94287737 754.32681506 122.875 759.5625 C121.80894531 760.17802734 120.74289062 760.79355469 119.64453125 761.42773438 C116.42942477 763.28470194 113.21464622 765.14223579 110 767 C105.70877226 769.47992741 101.41716911 771.9592022 97.125 774.4375 C95.52809326 775.35970337 95.52809326 775.35970337 93.89892578 776.30053711 C88.2453124 779.56217181 82.58515675 782.8118537 76.9140625 786.04296875 C76.02568192 786.54917 76.02568192 786.54917 75.11935425 787.06559753 C74.52712067 787.40303482 73.93488708 787.74047211 73.32470703 788.08813477 C60.14098389 795.59985362 47.03198008 803.22767214 34 811 C37.06706455 813.40811603 40.24963982 815.37186384 43.63671875 817.30078125 C45.31954956 818.2611731 45.31954956 818.2611731 47.03637695 819.2409668 C48.25334904 819.93159933 49.47039186 820.62210725 50.6875 821.3125 C51.94953749 822.03087481 53.21149935 822.74938251 54.47338867 823.46801758 C64.62198923 829.24159282 74.80679651 834.95013504 85 840.64453125 C99.94033162 848.9931154 114.81354341 857.45861017 129.66567993 865.96282959 C138.93457558 871.26841339 148.23950372 876.50682454 157.56591797 881.71069336 C165.99453734 886.4204125 174.37927714 891.20459613 182.75558472 896.00640869 C192.55752909 901.62428956 202.39851367 907.16782805 212.27148438 912.66015625 C213.24537109 913.20285156 214.21925781 913.74554687 215.22265625 914.3046875 C216.07609619 914.77890137 216.92953613 915.25311523 217.80883789 915.74169922 C219.58049343 916.75909338 221.30012018 917.86674679 223 919 C226.57517327 918.63048163 229.46363352 916.77595242 232.55859375 915.04296875 C233.65550537 914.43138916 234.75241699 913.81980957 235.88256836 913.18969727 C237.06764828 912.52248056 238.25262292 911.85507684 239.4375 911.1875 C240.66593376 910.49962701 241.89453261 909.81204877 243.12329102 909.12475586 C252.8391775 903.68281654 262.51494004 898.17099189 272.17089844 892.62353516 C277.03631032 889.83142357 281.9081882 887.05062797 286.77932739 884.26852417 C289.77110364 882.55966188 292.76248385 880.85010661 295.75390625 879.140625 C296.96500463 878.44856442 298.17610489 877.75650713 299.38720703 877.06445312 C300.28454559 876.55168823 300.28454559 876.55168823 301.20001221 876.02856445 C307.35769653 872.5098877 307.35769653 872.5098877 313.51538086 868.99121094 C314.09013153 868.66278198 314.6648822 868.33435303 315.25704956 867.99597168 C474.50000001 776.99999999 474.50000001 776.99999999 476.24995422 776.00003052 C477.41677849 775.33327089 478.58359774 774.6665025 479.75041199 773.99972534 C482.66462646 772.33440912 485.57892742 770.66924463 488.4934082 769.00439453 C493.77275664 765.98845394 499.05143944 762.97137659 504.32693481 759.94869995 C507.28003016 758.2567216 510.23362989 756.56562536 513.1875 754.875 C513.76850464 754.54244202 514.34950928 754.20988403 514.94812012 753.86724854 C523.18785151 749.15330102 531.45796842 744.49632005 539.75 739.875 C548.89445571 734.77785402 557.95359092 729.55001254 566.98144531 724.24951172 C574.105861 720.07710547 581.28583194 716.01496802 588.5 712 C597.80181464 706.82186432 607.02521671 701.52461304 616.20898438 696.14013672 C626.0937133 690.34660556 636.03970681 684.66240152 646 679 C642.56768391 676.12196611 639.13268845 673.82360548 635.203125 671.6796875 C634.0886499 671.06738281 632.9741748 670.45507812 631.82592773 669.82421875 C631.24253632 669.50630371 630.6591449 669.18838867 630.05807495 668.86083984 C626.98710646 667.18641639 623.92536239 665.49529329 620.86328125 663.8046875 C620.25996475 663.4719281 619.65664825 663.1391687 619.03504944 662.79632568 C614.45963201 660.26757882 609.93032489 657.67224416 605.4375 655 C598.55008492 650.90686837 591.62816465 646.87727358 584.6875 642.875 C583.58672119 642.24021729 582.48594238 641.60543457 581.35180664 640.95141602 C572.61392699 635.91857329 563.8572115 630.91914816 555.0977478 625.92401123 C546.05692659 620.76675557 537.05556088 615.5450389 528.07324219 610.28662109 C519.28464764 605.14905319 510.44809236 600.09696519 501.60424805 595.05541992 C492.25371628 589.72394012 482.9266988 584.35276568 473.61181641 578.95922852 C470.7442273 577.30083311 467.87337952 575.64833919 465 574 C464.12134277 573.49388184 463.24268555 572.98776367 462.33740234 572.46630859 C461.52867676 572.00691895 460.71995117 571.5475293 459.88671875 571.07421875 C459.18119873 570.67162842 458.47567871 570.26903809 457.7487793 569.85424805 C454.03593871 568.04059047 451.93588503 570.04585167 448.59375 571.97265625 Z M660.27734375 715.5703125 C659.27638672 716.12976563 658.27542969 716.68921875 657.24414062 717.265625 C656.15294922 717.87921875 655.06175781 718.4928125 653.9375 719.125 C652.81150391 719.75664063 651.68550781 720.38828125 650.52539062 721.0390625 C641.97045961 725.84848164 633.48833327 730.77771554 625.02514648 735.74658203 C616.86325425 740.52671006 608.62015328 745.15052339 600.35546875 749.75 C593.18646305 753.74964452 586.07907237 757.84348044 579 762 C569.85086711 767.37196793 560.62596869 772.59076525 551.35546875 777.75 C544.18645936 781.74964659 537.07916232 785.84362972 530 790 C520.93815741 795.31839275 511.80807301 800.49871109 502.63012695 805.61376953 C494.78903143 809.987516 486.97969078 814.41487167 479.1875 818.875 C478.60504517 819.20836365 478.02259033 819.54172729 477.42248535 819.88519287 C474.46406468 821.57873714 471.50610134 823.27307826 468.54833984 824.96777344 C463.28378943 827.98368289 458.015245 830.99260211 452.74697876 834.00201416 C449.83115361 835.66771971 446.91559013 837.33388314 444 839 C442.83333459 839.66666886 441.66666792 840.33333552 440.5 841 C439.9225 841.33 439.345 841.66 438.75 842 C349.5 893 349.5 893 347.75004578 893.99996948 C346.58322151 894.66672911 345.41640226 895.3334975 344.24958801 896.00027466 C341.33537354 897.66559088 338.42107258 899.33075537 335.5065918 900.99560547 C330.22724336 904.01154606 324.94856056 907.02862341 319.67306519 910.05130005 C316.71996984 911.7432784 313.76637011 913.43437464 310.8125 915.125 C309.94099304 915.62383698 309.94099304 915.62383698 309.05187988 916.13275146 C299.80110376 921.42511733 290.50771505 926.63825844 281.19775391 931.82568359 C272.60523437 936.62815754 264.09647499 941.5679974 255.61230469 946.55908203 C254.67161133 947.11192871 253.73091797 947.66477539 252.76171875 948.234375 C251.93631592 948.72131836 251.11091309 949.20826172 250.26049805 949.70996094 C248.21300418 950.87844108 246.10856861 951.94571569 244 953 C244 1025.6 244 1098.2 244 1173 C247.49472611 1171.60210955 250.44993488 1170.28283805 253.67578125 1168.453125 C254.57321045 1167.94547607 255.47063965 1167.43782715 256.39526367 1166.91479492 C257.35795166 1166.3654126 258.32063965 1165.81603027 259.3125 1165.25 C260.32868408 1164.67290283 261.34486816 1164.09580566 262.3918457 1163.5012207 C270.51846838 1158.87393336 278.59817899 1154.16804853 286.66772461 1149.44213867 C294.37549031 1144.93288832 302.11750337 1140.48544565 309.875 1136.0625 C318.97088921 1130.87573378 328.05712391 1125.6731842 337.125 1120.4375 C338.72408203 1119.51420898 338.72408203 1119.51420898 340.35546875 1118.57226562 C343.57057523 1116.71529806 346.78535378 1114.85776421 350 1113 C363.94844368 1104.93910696 377.91003888 1096.90290574 391.90472412 1088.92263794 C399.96263212 1084.32605777 407.99417786 1079.6867584 416 1075 C424.59522672 1069.9681931 433.2231213 1064.99610928 441.875 1060.0625 C450.97079987 1054.87557574 460.05712263 1049.67318494 469.125 1044.4375 C470.19105469 1043.82197266 471.25710938 1043.20644531 472.35546875 1042.57226562 C475.57057523 1040.71529806 478.78535378 1038.85776421 482 1037 C495.94844368 1028.93910696 509.91003888 1020.90290574 523.90472412 1012.92263794 C531.96263212 1008.32605777 539.99417786 1003.6867584 548 999 C556.59522672 993.9681931 565.2231213 988.99610928 573.875 984.0625 C586.20025196 977.03396493 598.49722067 969.95759566 610.78222656 962.85888672 C616.1867065 959.73675393 621.59350107 956.61863473 627 953.5 C631.29 951.025 635.58 948.55 640 946 C648.58 941.05 657.16 936.1 666 931 C666 859.06 666 787.12 666 713 C663.97210197 713 661.98262699 714.61656499 660.27734375 715.5703125 Z " fill="#FF2C1F" transform="translate(256,0)"/>
</svg>
